 <svg xmlns="http://www.w3.org/2000/svg" width="175.000000pt" height="177.000000pt" fill="none" stroke="#fff" stroke-width="2" stroke-linecap="round" stroke-linejoin="round">  
     <path d="M269 1735 c-104 -33 -200 -127 -233 -227 -14 -44 -16 -123 -16 -624 0 -556 1 -575 21 -629 37 -99 123 -185 217 -217 27 -9 184 -13 590 -16 620 -3 632 -2 729 64 66 45 128 135 143 207 7 36 10 237 8 623 l-3 569 -26 56 c-37 79 -90 133 -167 171 l-67 33 -575 2 c-477 2 -583 -1 -621 -12z m908 -266 c-3 -11 -20 -94 -38 -183 l-33 -163 46 -47 c66 -66 91 -136 86 -241 -5 -85 -19 -122 -70 -187 -59 -76 -209 -117 -252 -69 -18 19 -18 19 -49 0 -42 -25 -112 -25 -155 1 -53 32 -72 74 -72 157 0 61 5 80 33 134 37 73 92 118 155 126 51 7 87 -2 112 -27 23 -23 23 -22 39 55 5 28 6 54 1 59 -5 5 -50 7 -102 4 -107 -4 -162 -25 -223 -85 -58 -57 -88 -132 -93 -235 -4 -75 -1 -93 20 -140 46 -99 121 -150 248 -168 124 -18 264 15 320 76 18 18 34 24 67 24 24 0 43 -5 43 -10 0 -20 -95 -106 -140 -127 -128 -59 -316 -58 -446 3 -138 65 -218 242 -184 409 44 220 220 351 446 332 l70 -6 34 164 33 165 55 0 c50 0 54 -2 49 -21z"></path> <path d="M1086 1020 c-13 -34 -75 -363 -70 -371 10 -16 29 -10 68 23 97 80 114 237 35 330 -21 25 -29 30 -33 18z"></path> <path d="M840 923 c-74 -27 -125 -176 -85 -252 49 -95 165 -12 182 129 7 60 -9 103 -43 119 -27 12 -31 12 -54 4z"></path> 
</svg> 
