<svg version="1.0" xmlns="http://www.w3.org/2000/svg" width="56" height="56" viewBox="0 0 175 177"><g fill="#fff"><path d="M26.9 3.5C16.5 6.8 6.9 16.2 3.6 26.2 2.2 30.6 2 38.5 2 88.6c0 55.6.1 57.5 2.1 62.9 3.7 9.9 12.3 18.5 21.7 21.7 2.7.9 18.4 1.3 59 1.6 62 .3 63.2.2 72.9-6.4 6.6-4.5 12.8-13.5 14.3-20.7.7-3.6 1-23.7.8-62.3l-.3-56.9-2.6-5.6c-3.7-7.9-9-13.3-16.7-17.1l-6.7-3.3L89 2.3c-47.7-.2-58.3.1-62.1 1.2zm90.8 26.6c-.3 1.1-2 9.4-3.8 18.3l-3.3 16.3 4.6 4.7c6.6 6.6 9.1 13.6 8.6 24.1-.5 8.5-1.9 12.2-7 18.7-5.9 7.6-20.9 11.7-25.2 6.9-1.8-1.9-1.8-1.9-4.9 0-4.2 2.5-11.2 2.5-15.5-.1-5.3-3.2-7.2-7.4-7.2-15.7 0-6.1.5-8 3.3-13.4 3.7-7.3 9.2-11.8 15.5-12.6 5.1-.7 8.7.2 11.2 2.7 2.3 2.3 2.3 2.2 3.9-5.5.5-2.8.6-5.4.1-5.9s-5-.7-10.2-.4c-10.7.4-16.2 2.5-22.3 8.5-5.8 5.7-8.8 13.2-9.3 23.5-.4 7.5-.1 9.3 2 14 4.6 9.9 12.1 15 24.8 16.8 12.4 1.8 26.4-1.5 32-7.6 1.8-1.8 3.4-2.4 6.7-2.4 2.4 0 4.3.5 4.3 1 0 2-9.5 10.6-14 12.7-12.8 5.9-31.6 5.8-44.6-.3-13.8-6.5-21.8-24.2-18.4-40.9 4.4-22 22-35.1 44.6-33.2l7 .6 3.4-16.4 3.3-16.5h5.5c5 0 5.4.2 4.9 2.1z"></path><path d="M108.6 75c-1.3 3.4-7.5 36.3-7 37.1 1 1.6 2.9 1 6.8-2.3 9.7-8 11.4-23.7 3.5-33-2.1-2.5-2.9-3-3.3-1.8zM84 84.7c-7.4 2.7-12.5 17.6-8.5 25.2 4.9 9.5 16.5 1.2 18.2-12.9.7-6-.9-10.3-4.3-11.9-2.7-1.2-3.1-1.2-5.4-.4z"></path></g></svg>
