 <svg version="1.0" xmlns="http://www.w3.org/2000/svg"  width="50.000000pt" height="51.000000pt" viewBox="0 0 50.000000 51.000000"  preserveAspectRatio="xMidYMid meet">  <g transform="translate(0.000000,51.000000) scale(0.100000,-0.100000)" fill="#000000" stroke="none"> <path d="M555 2971 c-245 -30 -459 -225 -510 -467 -22 -103 -22 -1886 0 -1989 26 -120 74 -207 168 -299 90 -89 169 -135 278 -161 96 -22 1926 -22 2014 0 203 52 361 198 432 400 l28 80 0 965 c0 906 -1 969 -18 1030 -58 203 -218 366 -422 426 -55 17 -130 18 -985 20 -509 1 -952 -2 -985 -5z m1954 -47 c36 -9 93 -30 126 -47 78 -40 201 -163 238 -238 59 -118 57 -78 57 -1139 l-1 -975 -22 -66 c-65 -192 -223 -334 -417 -375 -99 -21 -1884 -20 -1985 1 -207 44 -383 215 -430 419 -14 58 -15 190 -13 1034 l3 967 28 69 c53 134 152 243 277 306 112 56 75 54 940 60 1001 6 1114 5 1199 -16z"></path> <path d="M1826 2552 c-10 -12 -35 -113 -69 -278 l-54 -259 -149 0 c-107 -1 -169 -6 -219 -18 -322 -81 -535 -364 -535 -712 0 -272 126 -487 345 -591 124 -59 209 -76 390 -78 170 -1 254 12 359 56 115 49 227 143 276 233 36 66 24 79 -74 83 l-77 3 -55 -50 c-104 -95 -225 -133 -424 -133 -266 1 -430 84 -513 260 -29 61 -32 78 -35 183 -5 138 7 201 53 298 62 129 172 217 320 256 57 15 279 24 291 12 5 -4 -15 -127 -21 -135 -1 -1 -24 9 -51 23 -44 24 -57 26 -134 23 -74 -3 -93 -8 -142 -36 -196 -112 -302 -404 -218 -599 25 -59 100 -136 158 -160 22 -10 66 -17 107 -17 59 0 81 5 127 28 l57 29 30 -26 c39 -32 91 -41 170 -28 156 25 281 124 365 289 106 209 62 467 -107 637 l-70 70 62 307 c49 241 60 312 51 328 -10 18 -20 20 -104 20 -77 0 -96 -3 -110 -18z m199 -24 c-3 -7 -34 -152 -69 -323 -46 -221 -61 -311 -53 -314 7 -2 40 -31 75 -64 101 -97 152 -222 152 -372 0 -268 -185 -489 -422 -503 -91 -5 -132 8 -150 48 l-12 28 -35 -28 c-46 -35 -91 -50 -155 -50 -82 0 -123 17 -181 73 -61 59 -85 122 -85 218 0 140 50 261 150 361 52 53 77 69 120 82 109 32 220 12 268 -49 12 -15 22 -24 22 -19 1 5 11 57 24 116 28 126 35 117 -99 125 -345 21 -582 -182 -620 -532 -15 -144 48 -321 147 -410 109 -98 234 -138 438 -138 205 0 335 40 440 139 47 44 48 44 119 44 l72 0 -22 -40 c-36 -63 -137 -154 -217 -194 -170 -85 -429 -106 -646 -50 -232 59 -390 220 -442 450 -23 105 -15 291 16 384 81 241 255 404 487 456 85 19 234 24 326 11 51 -8 57 -7 57 10 0 10 25 137 55 282 30 146 55 266 55 268 0 2 43 3 95 3 71 0 93 -3 90 -12z"></path> <path d="M1805 1478 c-78 -380 -74 -355 -60 -374 31 -43 148 43 206 151 88 162 68 354 -49 468 l-39 38 -58 -283z m143 124 c22 -49 24 -63 20 -160 -3 -102 -5 -110 -41 -174 -37 -67 -75 -106 -128 -134 -28 -14 -29 -14 -29 10 0 13 9 68 20 121 11 54 22 107 24 119 21 100 56 268 62 291 l7 28 20 -24 c11 -13 31 -48 45 -77z"></path> <path d="M1430 1564 c-74 -32 -119 -96 -145 -206 -39 -167 5 -281 109 -281 82 0 146 60 187 177 26 75 35 181 20 228 -25 76 -102 113 -171 82z m116 -48 c24 -20 28 -33 32 -87 7 -118 -45 -259 -111 -300 -18 -10 -50 -19 -73 -19 -59 0 -86 32 -92 109 -5 74 21 198 51 243 52 76 139 101 193 54z"></path> </g> </svg> 
