<svg xmlns="http://www.w3.org/2000/svg" width="50px" height="50px" fill="#10b981" fill-rule="evenodd" stroke-linejoin="round" stroke-miterlimit="2" clip-rule="evenodd" viewBox="0 0 512 412">
<path d="M1450 7673 c-85 -10 -236 -46 -331 -79 -454 -157 -816 -527 -964
-985 -75 -232 -69 -3 -73 -2659 -2 -1745 0 -2410 8 -2480 82 -681 589 -1220
1265 -1346 96 -18 199 -19 2520 -19 2286 0 2425 1 2510 18 431 86 783 318
1017 672 112 168 185 342 231 549 l22 101 0 2445 0 2445 -22 101 c-139 625
-584 1072 -1211 1216 l-97 22 -2420 2 c-1331 0 -2436 -1 -2455 -3z m3780
-1116 c0 -2 -76 -374 -170 -826 -93 -451 -170 -825 -170 -829 0 -4 28 -25 63
-47 83 -53 262 -233 321 -323 229 -349 295 -780 180 -1180 -53 -185 -196 -425
-342 -575 -210 -215 -477 -328 -777 -330 -144 -1 -211 18 -269 76 -23 23 -48
58 -55 77 -8 19 -15 36 -17 38 -1 2 -33 -20 -70 -49 -134 -101 -257 -142 -424
-141 -372 2 -634 248 -680 637 -43 361 106 787 366 1050 171 173 362 255 594
255 189 0 305 -45 414 -160 39 -42 68 -65 71 -58 10 34 118 578 114 582 -12
11 -211 37 -329 42 -479 22 -880 -115 -1160 -396 -238 -238 -385 -580 -421
-978 -49 -544 209 -1038 656 -1252 165 -79 365 -135 580 -161 140 -17 464 -14
607 5 366 50 650 181 847 392 l69 74 186 0 c102 0 186 -3 186 -8 0 -17 -91
-166 -139 -225 -247 -311 -636 -505 -1136 -568 -147 -18 -521 -16 -680 5 -653
86 -1089 356 -1322 820 -396 789 -140 1848 563 2321 100 68 299 164 424 205
318 104 737 129 1059 64 51 -11 76 -12 80 -5 4 6 74 336 155 733 82 398 151
726 153 731 4 7 473 11 473 4z"/>
<path d="M4810 4531 c0 -5 -72 -355 -159 -778 -88 -423 -163 -791 -166 -819
-8 -58 11 -108 45 -119 50 -16 161 34 271 123 262 211 414 584 379 930 -25
237 -107 415 -274 590 -74 77 -96 94 -96 73z"/>
<path d="M3727 4055 c-158 -43 -295 -197 -367 -410 -90 -267 -103 -530 -34
-685 105 -233 395 -250 590 -36 125 138 228 421 241 668 10 194 -24 307 -121
395 -84 77 -190 101 -309 68z"/></path></svg>
